<?xml version="1.0" encoding="UTF-8"?>
<svg version="1.1" xmlns="http://www.w3.org/2000/svg" width="500" height="500">
<path d="M0 0 C165 0 330 0 500 0 C500 165 500 330 500 500 C335 500 170 500 0 500 C0 335 0 170 0 0 Z " fill="#FDFEFD" transform="translate(0,0)"/>
<path d="M0 0 C11.57680251 9.64733543 20.46308623 23.83731342 22 39 C22.03404723 41.66712804 22.01136686 44.33251932 22 47 C23.57297852 46.9685791 23.57297852 46.9685791 25.17773438 46.93652344 C29.09881735 46.86367508 33.01984149 46.81803889 36.94140625 46.78027344 C38.63291511 46.7602594 40.32435567 46.73303927 42.015625 46.69824219 C44.45850554 46.64926935 46.90046511 46.62692967 49.34375 46.609375 C50.08991577 46.58872986 50.83608154 46.56808472 51.6048584 46.54681396 C57.15973724 46.54448351 61.34891913 47.93532251 66 51 C69.83634831 55.03826138 72.14353884 58.83918295 72.50244141 64.42285156 C72.5623526 65.29186096 72.62226379 66.16087036 72.68399048 67.05621338 C72.73928925 67.99156921 72.79458801 68.92692505 72.8515625 69.890625 C72.91532074 70.8680365 72.97907898 71.845448 73.04476929 72.85247803 C73.1781848 74.92678096 73.30735767 77.00136046 73.43261719 79.07617188 C73.62180976 82.19736918 73.82535278 85.31736525 74.03125 88.4375 C74.74891656 99.64222856 75.20367148 110.77132379 75 122 C70.73383684 123.13764351 67.43513689 124 63 124 C61.89290996 117.59534685 61.74593779 111.23829715 61.5625 104.75 C61.22732787 94.82343273 60.77915451 84.91094404 60.125 75 C60.05869385 73.84338867 59.9923877 72.68677734 59.92407227 71.49511719 C59.84858154 70.42422852 59.77309082 69.35333984 59.6953125 68.25 C59.6027417 66.83460938 59.6027417 66.83460938 59.50830078 65.390625 C59.13477845 63.010759 59.13477845 63.010759 57.93969727 61.20385742 C54.90336062 59.31937963 51.74038718 59.51873683 48.26953125 59.48828125 C47.51911057 59.47033005 46.76868988 59.45237885 45.99552917 59.43388367 C43.6012431 59.37974813 41.20715669 59.34587584 38.8125 59.3125 C37.18812323 59.27932964 35.56377283 59.24484024 33.93945312 59.20898438 C29.95977944 59.1240203 25.9801653 59.05722535 22 59 C22.02356567 60.52137573 22.02356567 60.52137573 22.04760742 62.07348633 C22.10190319 65.83610087 22.13634851 69.59868078 22.16479492 73.36157227 C22.17988243 74.99021223 22.20035506 76.61881156 22.22631836 78.24731445 C22.26270449 80.58815535 22.2797262 82.92845919 22.29296875 85.26953125 C22.30845261 85.99775589 22.32393646 86.72598053 22.33988953 87.47627258 C22.34156139 92.49702563 22.34156139 92.49702563 20.66918945 94.9597168 C18.04228156 96.59687557 16.01291619 96.37661452 13 96 C12.01 95.01 11.02 94.02 10 93 C10 81.78 10 70.56 10 59 C-22.67 59 -55.34 59 -89 59 C-89 70.22 -89 81.44 -89 93 C-92 96 -92 96 -95.5625 96.375 C-96.696875 96.25125 -97.83125 96.1275 -99 96 C-101.46105545 92.30841682 -101.25575793 89.53376446 -101.1953125 85.26953125 C-101.1924826 84.51911057 -101.18965271 83.76868988 -101.18673706 82.99552917 C-101.17555062 80.60102325 -101.15044928 78.20689269 -101.125 75.8125 C-101.11496819 74.18815645 -101.10584269 72.56380703 -101.09765625 70.93945312 C-101.07561637 66.959491 -101.0410974 62.97980912 -101 59 C-105.78770673 59.06883588 -110.57453659 59.15678029 -115.36157227 59.26245117 C-116.99005409 59.29570536 -118.61865131 59.32373584 -120.24731445 59.34643555 C-122.58855361 59.37997357 -124.92873486 59.43228585 -127.26953125 59.48828125 C-128.36186821 59.49786613 -128.36186821 59.49786613 -129.47627258 59.50764465 C-133.26901547 59.58735728 -133.26901547 59.58735728 -136.6693573 61.08805847 C-138.68007063 63.97716336 -138.55397133 66.53066773 -138.75195312 70.0234375 C-138.81862293 71.09806716 -138.81862293 71.09806716 -138.8866396 72.19440651 C-139.03162692 74.58735468 -139.15644828 76.98092066 -139.28125 79.375 C-139.37973848 81.07081868 -139.47942873 82.76656793 -139.58024597 84.46224976 C-139.84796038 89.0263311 -140.09806528 93.59122341 -140.34469223 98.15648651 C-140.60391507 102.90257003 -140.87889194 107.64774298 -141.15161133 112.39306641 C-141.79139219 123.59411435 -142.4013021 134.79668814 -143 146 C-143.04249626 146.79454086 -143.08499252 147.58908173 -143.12877655 148.40769958 C-143.97076858 164.17215715 -144.7685311 179.93860461 -145.53483582 195.70692444 C-145.86643917 202.46939004 -146.23027094 209.22921664 -146.625 215.98828125 C-149.87042778 242.87155433 -149.87042778 242.87155433 -147 269 C-111.03 269 -75.06 269 -38 269 C-36.35 272.96 -34.7 276.92 -33 281 C-48.11659933 281.13909239 -63.23312424 281.24606861 -78.35021973 281.31087303 C-85.36993236 281.34176735 -92.38923926 281.38386176 -99.40869141 281.45263672 C-106.18439571 281.51899166 -112.95967845 281.55371861 -119.73568726 281.56926346 C-122.31927113 281.58033965 -124.90283226 281.60196911 -127.48623657 281.63438034 C-131.10851641 281.67801303 -134.72906165 281.68393076 -138.3515625 281.68115234 C-139.4168367 281.702724 -140.4821109 281.72429565 -141.57966614 281.746521 C-147.87297798 281.69437677 -151.56225688 280.69925571 -156.41766357 276.62157631 C-159.95726018 272.99420232 -161.78508198 269.63009851 -162.4609375 264.50390625 C-162.43257813 263.20324219 -162.40421875 261.90257812 -162.375 260.5625 C-162.36065918 259.80211426 -162.34631836 259.04172852 -162.33154297 258.25830078 C-162.08085814 248.64500176 -161.37139997 239.04237864 -160.72893333 229.44880295 C-160.1247798 220.35307208 -159.64001594 211.25484913 -159.20359802 202.14970016 C-158.19147847 181.10418291 -157.02445942 160.06813228 -155.82275391 139.03271484 C-155.60628489 135.24307382 -155.39113481 131.45336175 -155.17724609 127.66357422 C-154.60911526 117.5992829 -154.0329786 107.53556192 -153.43667603 97.47289658 C-153.1523241 92.65887253 -152.88101007 87.8444153 -152.62349701 83.02888298 C-152.50738863 80.88936481 -152.38545761 78.75027602 -152.26086426 76.61123657 C-152.11302368 74.06978949 -151.9745058 71.52777411 -151.84753418 68.98519897 C-151.44543565 62.39002863 -150.96838621 57.15349715 -146.24609375 52.13671875 C-145.64925781 51.65847656 -145.05242187 51.18023437 -144.4375 50.6875 C-143.53837891 49.95080078 -143.53837891 49.95080078 -142.62109375 49.19921875 C-138.80462865 46.37595421 -135.05390586 46.87366197 -130.4921875 46.90234375 C-129.23125778 46.90446617 -129.23125778 46.90446617 -127.94485474 46.90663147 C-125.25486725 46.91223763 -122.56496241 46.92479114 -119.875 46.9375 C-118.05338662 46.94251421 -116.23177193 46.94707725 -114.41015625 46.95117188 C-109.94007223 46.96220906 -105.47005014 46.9794778 -101 47 C-101.01160156 45.11583374 -101.01160156 45.11583374 -101.0234375 43.19360352 C-101.10870301 29.34595202 -94.50949546 14.75866837 -84.97265625 4.765625 C-60.20798292 -17.39998361 -26.84375322 -19.98368295 0 0 Z " fill="#0A3361" transform="translate(259,78)"/>
<path d="M0 0 C0.33 0 0.66 0 1 0 C1 77.88 1 155.76 1 236 C-76.88 236 -154.76 236 -235 236 C-235 235.67 -235 235.34 -235 235 C-234.30140869 234.92483154 -233.60281738 234.84966309 -232.88305664 234.7722168 C-195.86597289 230.75040504 -160.53576875 223.12128453 -128 204 C-127.26346191 203.57074219 -126.52692383 203.14148438 -125.76806641 202.69921875 C-110.44007197 193.70904073 -96.33908831 183.73349782 -83 172 C-82.09121094 171.20335937 -81.18242187 170.40671875 -80.24609375 169.5859375 C-71.31292777 161.64837628 -63.41489083 153.37983689 -56 144 C-55.2059375 143.01128906 -54.411875 142.02257812 -53.59375 141.00390625 C-42.986802 127.56060665 -34.11858528 113.05636408 -26 98 C-25.51917969 97.12214844 -25.03835938 96.24429688 -24.54296875 95.33984375 C-20.61333785 87.86730753 -17.82460866 79.93682812 -15 72 C-14.74573242 71.29842773 -14.49146484 70.59685547 -14.22949219 69.87402344 C-6.16644477 47.50854374 -1.23701386 23.75919721 0 0 Z " fill="#010101" transform="translate(499,264)"/>
<path d="M0 0 C76.56 0 153.12 0 232 0 C232 76.56 232 153.12 232 232 C231.67 232 231.34 232 231 232 C230.90501221 231.20118408 230.81002441 230.40236816 230.7121582 229.5793457 C227.79792753 205.46819446 224.54442726 180.36147174 214.015625 158.17578125 C212.82827251 155.63210688 211.79613692 153.04238093 210.75 150.4375 C208.3512509 144.61303733 205.57357661 139.02123167 202.67871094 133.43139648 C201.07532351 130.30587963 199.75996933 127.42642963 199 124 C198.34 124 197.68 124 197 124 C196.54173828 123.06994141 196.54173828 123.06994141 196.07421875 122.12109375 C191.57328262 113.41083144 185.93695885 105.76167131 180 98 C179.31808594 97.10152344 178.63617188 96.20304687 177.93359375 95.27734375 C170.49340098 85.72469541 162.278626 76.61771761 153.03515625 68.78125 C151.51385835 67.44974935 150.05530571 66.0459523 148.6328125 64.609375 C145.81350745 61.81516762 142.87045632 59.27498742 139.8125 56.75 C139.27947266 56.30398437 138.74644531 55.85796875 138.19726562 55.3984375 C135.26588274 52.95191899 135.26588274 52.95191899 132 51 C132 50.34 132 49.68 132 49 C130.7625 48.690625 130.7625 48.690625 129.5 48.375 C126.53743415 47.21113484 125.07372517 46.40682553 122.6875 44.5 C108.09973178 33.10764767 90.17318477 24.68443112 73 18 C72.38656738 17.76039551 71.77313477 17.52079102 71.14111328 17.27392578 C47.79938953 8.20074403 24.72742935 4.41148872 0 1 C0 0.67 0 0.34 0 0 Z " fill="#010101" transform="translate(268,0)"/>
<path d="M0 0 C0.33 0 0.66 0 1 0 C1.06993164 0.68811768 1.13986328 1.37623535 1.21191406 2.08520508 C4.39540304 32.84272439 11.10606079 61.59697881 24.50390625 89.62890625 C25.7796709 92.50354044 26.56638417 94.90528978 27 98 C27.66 98 28.32 98 29 98 C29.29132812 98.60585938 29.58265625 99.21171875 29.8828125 99.8359375 C34.53385508 109.34278554 39.93328535 118.1261495 46.10449219 126.71020508 C49 130.78814881 49 130.78814881 49 133 C49.66 133 50.32 133 51 133 C52.71897644 135.04943223 54.33551819 137.11180506 55.9375 139.25 C81.48635515 172.53670182 116.60895694 199.42657345 156.1328125 213.921875 C158.59647061 214.84826415 160.93786158 215.87092664 163.3125 217 C184.69941953 226.57795497 208.93278892 229.51835872 232 232 C232 232.33 232 232.66 232 233 C155.44 233 78.88 233 0 233 C0 156.11 0 79.22 0 0 Z " fill="#010101" transform="translate(0,267)"/>
<path d="M0 0 C76.56 0 153.12 0 232 0 C232 0.33 232 0.66 232 1 C231.0298999 1.12004395 230.0597998 1.24008789 229.06030273 1.36376953 C206.38327157 4.20053734 184.26585374 7.19662977 163 16 C161.67019122 16.52577137 160.33951796 17.04936385 159.0078125 17.5703125 C142.06457696 24.30787239 125.71321275 32.18606674 110.9375 42.9375 C108 45 108 45 106 45 C106 45.66 106 46.32 106 47 C104.1640625 48.19140625 104.1640625 48.19140625 101.625 49.5625 C96.45026207 52.53318288 92.32634319 56.12379118 88.03125 60.2421875 C86 62 86 62 84 62 C84 62.66 84 63.32 84 64 C82.63671875 65.33984375 82.63671875 65.33984375 80.6875 66.9375 C68.84259401 77.01827106 55.05117918 89.89764165 48 104 C47.34 104 46.68 104 46 104 C45.77570312 104.66257812 45.55140625 105.32515625 45.3203125 106.0078125 C43.58686779 109.93627003 41.26105868 113.31628324 38.875 116.875 C31.40129976 128.25404254 25.20627799 139.75835974 20.359375 152.484375 C19.18428473 155.52340156 17.89960428 158.4680866 16.5625 161.4375 C7.23796633 183.90661823 3.68402661 207.98502511 1 232 C0.67 232 0.34 232 0 232 C0 155.44 0 78.88 0 0 Z " fill="#000000" transform="translate(0,0)"/>
<path d="M0 0 C1.17516338 0.99000108 2.34291523 1.98892831 3.5 3 C4.86125 3.9590625 4.86125 3.9590625 6.25 4.9375 C9.14763685 7.59366711 10.74687629 10.54420218 12.5 14 C12.94085938 14.80953125 13.38171875 15.6190625 13.8359375 16.453125 C17.53206516 23.4542557 20.29779233 30.63770098 22.96191406 38.07250977 C24.82308156 43.24533938 26.8932721 48.22212144 29.25 53.19140625 C31.15071244 57.46206951 32.7243297 61.84695023 34.33789062 66.23242188 C35.91210948 70.49135505 37.61789754 74.63569956 39.515625 78.7578125 C40.71568884 81.49129125 41.760555 84.26869802 42.8125 87.0625 C44.95620175 92.72423988 47.35594464 98.22777761 49.83422852 103.74707031 C52.39575107 109.54974576 54.50811447 115.47091128 56.45874023 121.50488281 C58.05983409 126.38672985 58.05983409 126.38672985 61.5 130 C68.45444866 131.02544095 75.70266196 129.71937569 82.5625 128.49609375 C83.96288261 128.25817863 83.96288261 128.25817863 85.39155579 128.01545715 C88.42918354 127.49772043 91.46451781 126.96765749 94.5 126.4375 C97.71289296 125.88627822 100.92629661 125.33810096 104.13972473 124.79000854 C106.33276884 124.41569368 108.52562902 124.04029969 110.7183075 123.66384888 C117.98934077 122.41762462 125.26632566 121.21587101 132.55078125 120.05078125 C133.50814178 119.89729721 134.46550232 119.74381317 135.45187378 119.5856781 C139.11025721 118.99983626 142.76871956 118.41464017 146.4284668 117.83737183 C152.12728595 116.93745402 157.81800815 116.00095942 163.5 115 C164.3733197 114.84635986 165.2466394 114.69271973 166.14642334 114.53442383 C168.78301098 114.05933287 171.4131131 113.55779922 174.04296875 113.046875 C174.84825516 112.90219788 175.65354156 112.75752075 176.48323059 112.60845947 C179.80700414 111.93612314 182.04745033 111.45540152 184.47583008 109.01171875 C187.63195198 102.81232793 188.6144312 95.60822779 189.86328125 88.828125 C190.12627744 87.40849391 190.38946988 85.98889918 190.65283203 84.56933594 C190.79037903 83.82582886 190.92792603 83.08232178 191.06964111 82.31628418 C191.81146881 78.32360781 192.56829352 74.33377706 193.32421875 70.34375 C193.6334695 68.70963654 193.94271427 67.07552196 194.25195312 65.44140625 C194.56379909 63.79427027 194.87564808 62.14713486 195.1875 60.5 C195.51108012 58.79036693 195.83464789 57.08073153 196.15820312 55.37109375 C196.93863781 51.24736471 197.71932344 47.12368329 198.5 43 C204.11 43.66 209.72 44.32 215.5 45 C214.1503946 52.59386262 212.66312961 60.14299037 211.0625 67.6875 C209.6023872 74.61172431 208.18860207 81.53500171 206.9375 88.5 C201.46306899 118.0250212 201.46306899 118.0250212 192.2421875 125.47265625 C185.93565217 128.98527066 178.53749696 129.80905878 171.5 131 C170.58057617 131.16064941 169.66115234 131.32129883 168.71386719 131.48681641 C162.65864231 132.54190903 156.59499238 133.53844508 150.52636719 134.51318359 C145.848582 135.26564436 141.17393225 136.03650479 136.5 136.8125 C135.56333496 136.96759033 134.62666992 137.12268066 133.66162109 137.2824707 C126.893258 138.41161956 120.13316143 139.58506909 113.375 140.7734375 C112.48288818 140.93021469 111.59077637 141.08699188 110.67163086 141.2485199 C106.18286676 142.03793313 101.6946238 142.8301749 97.20703125 143.6262207 C95.53386193 143.92143073 93.86068517 144.21659855 92.1875 144.51171875 C91.43001465 144.64697968 90.6725293 144.7822406 89.89208984 144.92160034 C62.29858014 149.77588608 62.29858014 149.77588608 52.3203125 144.3125 C41.28710325 136.35722466 37.98048631 121.14193656 33.40234375 109 C31.66548697 104.40906964 29.82872778 99.87121456 27.9140625 95.3515625 C25.89205719 90.55907478 23.91375945 85.74900096 21.9375 80.9375 C21.56117432 80.02685791 21.18484863 79.11621582 20.79711914 78.17797852 C18.9221092 73.60946603 17.13170118 69.03054759 15.47265625 64.37890625 C13.987955 60.23744843 12.3190316 56.23971943 10.49560547 52.23779297 C8.71464561 48.23478217 7.16006689 44.14125245 5.5625 40.0625 C-1.04876828 22.63658229 -1.04876828 22.63658229 -14.99609375 10.94140625 C-20.57452846 8.84405404 -26.33314314 9.75096275 -32.13671875 10.41796875 C-41.76705679 11.43433671 -41.76705679 11.43433671 -45.875 9 C-47.87265086 5.31202918 -48.11281818 3.13652271 -47.5 -1 C-45.53744205 -3.99548318 -42.84585641 -4.93540932 -39.5 -6 C-25.97804902 -8.2427449 -11.49596139 -8.46618465 0 0 Z " fill="#07BD65" transform="translate(188.5,208)"/>
<path d="M0 0 C0.33 0 0.66 0 1 0 C1.49518091 18.81179568 0.53055187 37.41214349 -0.71972656 56.17504883 C-1.99479733 75.36713608 -2.98813977 94.56817664 -3.93798828 113.77880859 C-4.06018323 116.24837428 -4.18241572 118.71793811 -4.3046875 121.1875 C-4.36371246 122.38235016 -4.42273743 123.57720032 -4.48355103 124.80825806 C-4.83740061 131.91568518 -5.21785713 139.02088547 -5.6328125 146.125 C-8.8677123 172.93921845 -8.8677123 172.93921845 -6 199 C29.97 199 65.94 199 103 199 C104.65 202.96 106.3 206.92 108 211 C92.88340067 211.13909239 77.76687576 211.24606861 62.64978027 211.31087303 C55.63006764 211.34176735 48.61076074 211.38386176 41.59130859 211.45263672 C34.81560429 211.51899166 28.04032155 211.55371861 21.26431274 211.56926346 C18.68072887 211.58033965 16.09716774 211.60196911 13.51376343 211.63438034 C9.89148359 211.67801303 6.27093835 211.68393076 2.6484375 211.68115234 C1.5831633 211.702724 0.5178891 211.72429565 -0.57966614 211.746521 C-6.87297798 211.69437677 -10.56225688 210.69925571 -15.41766357 206.62157631 C-18.95726018 202.99420232 -20.78508198 199.63009851 -21.4609375 194.50390625 C-21.43257813 193.20324219 -21.40421875 191.90257812 -21.375 190.5625 C-21.36065918 189.80211426 -21.34631836 189.04172852 -21.33154297 188.25830078 C-21.08083409 178.64407945 -20.37128196 169.0405337 -19.72873592 159.4460392 C-19.12572974 150.36779505 -18.64223245 141.28711344 -18.20715141 132.19944763 C-17.13688752 109.92303484 -15.88018809 87.65792258 -14.60314941 65.39257812 C-14.37924524 61.48275261 -14.15673988 57.572848 -13.93426418 53.66294098 C-13.66377822 48.91067805 -13.39245368 44.15846309 -13.12109375 39.40625 C-13.07142393 38.53507034 -13.02175411 37.66389069 -12.97057915 36.76631165 C-12.34709629 25.84198197 -11.69500894 14.92003163 -11 4 C-8.90192055 6.67744188 -7.60323234 8.62189888 -7 12 C-6.34 12 -5.68 12 -5 12 C-4.67 11.34 -4.34 10.68 -4 10 C-3 13 -3 13 -4 16 C-3.34 16 -2.68 16 -2 16 C-1.34 10.72 -0.68 5.44 0 0 Z " fill="#0B3461" transform="translate(118,148)"/>
<path d="M0 0 C0 0.66 0 1.32 0 2 C0.556875 2.226875 1.11375 2.45375 1.6875 2.6875 C11.41620141 8.2091954 16.54419811 19.00469044 19.6875 29.23828125 C20.71187316 33.01565729 21 36.03389456 21 40 C-11.67 40 -44.34 40 -78 40 C-76.58810335 24.4691369 -71.7923872 12.25123875 -59.77734375 2.04296875 C-40.96283659 -11.79667576 -19.86892359 -10.69865117 0 0 Z " fill="#FAFBFC" transform="translate(248,85)"/>
<path d="M0 0 C7.34813049 4.21292815 11.57822193 12.06328177 14 20 C15.52065838 30.15142218 14.35507273 40.07747652 8.1875 48.46484375 C1.89163693 55.42038365 -6.03377569 60.10817736 -15.37109375 61.50390625 C-26.33054244 61.90407458 -34.88338942 58.2087123 -43 51 C-49.21827427 44.92305015 -52.16687829 37.12199661 -52.4375 28.4375 C-52.10287551 20.36035725 -49.94688174 13.44593682 -45 7 C-44.4225 6.154375 -43.845 5.30875 -43.25 4.4375 C-31.85631623 -7.90565742 -13.96006512 -7.87761617 0 0 Z " fill="#05BD64" transform="translate(385,353)"/>
<path d="M0 0 C8.8969404 5.63710144 15.25875335 12.70180314 18 23 C19.0862544 32.64218416 17.41003886 42.07694249 11.53125 49.97265625 C5.76962006 56.97827448 -0.78133973 61.87086879 -10 63 C-18.26594499 63.68183556 -24.83512709 63.35351325 -32 59 C-32.68707031 58.59910156 -33.37414062 58.19820313 -34.08203125 57.78515625 C-40.42467414 53.60119488 -45.59601978 46.98739484 -47.671875 39.61328125 C-48.86920374 30.07741307 -48.98682571 21.42219453 -44 13 C-43.608125 12.13375 -43.21625 11.2675 -42.8125 10.375 C-32.63896707 -2.95583625 -15.16789349 -7.16752371 0 0 Z " fill="#05BD63" transform="translate(290,366)"/>
<path d="M0 0 C1.48683706 0.89160413 2.94948467 1.82581444 4.375 2.8125 C4.95636719 3.19664062 5.53773438 3.58078125 6.13671875 3.9765625 C11.10636223 7.65685263 14.44072296 13.00966887 16.375 18.8125 C16.49776572 21.61612634 16.56013218 24.38400155 16.5625 27.1875 C16.57474609 27.94289062 16.58699219 28.69828125 16.59960938 29.4765625 C16.62094188 37.61135761 13.71707356 42.78493913 8.375 48.8125 C1.49396276 55.15329051 -5.62785875 58.45100235 -15.046875 58.08984375 C-23.6862957 57.16045152 -29.80411238 54.33034534 -35.625 47.8125 C-40.625 41.18232968 -40.625 41.18232968 -40.625 36.8125 C-41.285 36.8125 -41.945 36.8125 -42.625 36.8125 C-43.6250894 16.41067617 -43.6250894 16.41067617 -37.625 8.8125 C-35.16696919 6.11338301 -32.59867344 3.92375214 -29.625 1.8125 C-29.05394531 1.37808594 -28.48289062 0.94367188 -27.89453125 0.49609375 C-20.19283286 -4.38334872 -7.98800558 -3.82456025 0 0 Z " fill="#08BD65" transform="translate(413.625,184.1875)"/>
<path d="M0 0 C0.33895656 1.72807318 0.67091525 3.45751974 1 5.1875 C1.185625 6.15042969 1.37125 7.11335937 1.5625 8.10546875 C1.96877612 10.7934206 2.07933572 13.28771019 2 16 C-5.49848843 18.02687568 -13.1033231 19.35098797 -20.75 20.6875 C-21.47608459 20.81527832 -22.20216919 20.94305664 -22.95025635 21.07470703 C-37.7611119 23.67681364 -52.60813347 26.04097809 -67.46240234 28.38012695 C-79.77662431 30.32019739 -92.08015841 32.31561801 -104.375 34.375 C-105.13552673 34.50237549 -105.89605347 34.62975098 -106.67962646 34.76098633 C-110.0241153 35.32155916 -113.36836607 35.88350962 -116.71240234 36.44677734 C-118.33976318 36.72062256 -118.33976318 36.72062256 -120 37 C-121.07757568 37.18481934 -122.15515137 37.36963867 -123.26538086 37.56005859 C-125.93645361 37.98977675 -128.48398695 38.19970208 -131.1875 38.25 C-132.02667969 38.27578125 -132.86585938 38.3015625 -133.73046875 38.328125 C-136 38 -136 38 -137.76953125 36.7265625 C-139.4714787 34.33843306 -139.45881365 32.00020994 -139.59375 29.1328125 C-138.63121856 25.67529826 -136.75395056 24.26130384 -134 22 C-131.00125704 20.91822164 -127.96522499 20.45045948 -124.8203125 19.97265625 C-123.91168961 19.81834137 -123.00306671 19.66402649 -122.06690979 19.5050354 C-119.08915022 19.00459676 -116.1075772 18.53329568 -113.125 18.0625 C-111.05418437 17.72072244 -108.98362938 17.37736209 -106.91333008 17.0324707 C-100.61365319 15.9908985 -94.30799309 14.9898097 -88 14 C-87.04136047 13.84921997 -86.08272095 13.69843994 -85.09503174 13.54309082 C-77.41006701 12.33630141 -69.72383803 11.13807403 -62.02978516 9.99047852 C-51.98773645 8.4910552 -41.98978358 6.81483399 -32 5 C-30.71488525 4.76708252 -29.42977051 4.53416504 -28.10571289 4.29418945 C-26.86813232 4.06948975 -25.63055176 3.84479004 -24.35546875 3.61328125 C-22.56979492 3.2894043 -22.56979492 3.2894043 -20.74804688 2.95898438 C-18.32312734 2.51869454 -15.89866413 2.07588573 -13.47460938 1.63085938 C-11.71407227 1.3127832 -11.71407227 1.3127832 -9.91796875 0.98828125 C-8.87406982 0.79790283 -7.8301709 0.60752441 -6.75463867 0.41137695 C-4 0 -4 0 0 0 Z " fill="#06BD64" transform="translate(360,213)"/>
<path d="M0 0 C0.74507813 0.00902344 1.49015625 0.01804688 2.2578125 0.02734375 C4.08868059 0.05081642 5.91938238 0.08668475 7.75 0.125 C7.75 1.115 7.75 2.105 7.75 3.125 C9.07 3.125 10.39 3.125 11.75 3.125 C11.75 3.785 11.75 4.445 11.75 5.125 C14.225 5.62 14.225 5.62 16.75 6.125 C17.41 8.765 18.07 11.405 18.75 14.125 C16.44 14.455 14.13 14.785 11.75 15.125 C11.87117188 15.81980469 11.99234375 16.51460937 12.1171875 17.23046875 C11.56472958 21.58548279 8.97945989 23.51419281 5.875 26.4375 C5.31941406 26.98728516 4.76382813 27.53707031 4.19140625 28.10351562 C0.04503106 32.125 0.04503106 32.125 -2.25 32.125 C-2.4975 32.74375 -2.745 33.3625 -3 34 C-4.45628639 36.47568687 -5.62812506 37.07625002 -8.25 38.125 C-8.63671875 37.691875 -9.0234375 37.25875 -9.421875 36.8125 C-9.94265625 36.255625 -10.4634375 35.69875 -11 35.125 C-11.51046875 34.568125 -12.0209375 34.01125 -12.546875 33.4375 C-14.4196916 31.71805807 -14.4196916 31.71805807 -18.25 32.125 C-18.91 32.785 -19.57 33.445 -20.25 34.125 C-20.25 33.135 -20.25 32.145 -20.25 31.125 C-20.91 31.125 -21.57 31.125 -22.25 31.125 C-23.875 28.625 -23.875 28.625 -25.25 26.125 C-25.91 26.455 -26.57 26.785 -27.25 27.125 C-27.81022345 21.4812675 -28.1915192 16.60642531 -24.8125 11.8125 C-21.25507928 7.69738387 -16.94764909 4.80693057 -12.25 2.125 C-11.37988281 1.55265625 -11.37988281 1.55265625 -10.4921875 0.96875 C-7.05675908 -0.32402446 -3.61533358 -0.0830377 0 0 Z " fill="#06BD64" transform="translate(400.25,181.875)"/>
<path d="M0 0 C5.5137985 2.96306737 9.99267344 6.97802033 12 13 C12.60848024 18.983389 11.8632063 22.28463209 8.4375 27.23828125 C6.03193431 30.1864066 3.39096344 32.30451828 0 34 C-5.91954086 34.55362612 -11.0297837 34.58317919 -16 31 C-20.80663295 25.47498441 -22.34644506 20.82439496 -22.29296875 13.51953125 C-21.84779818 9.69106432 -20.5505306 7.85059302 -18 5 C-17.34 5 -16.68 5 -16 5 C-16 4.34 -16 3.68 -16 3 C-10.70622941 0.296798 -5.95935444 -1.27773466 0 0 Z " fill="#F5FDFA" transform="translate(280,379)"/>
<path d="M0 0 C4.84692378 2.46737965 8.24131464 4.98426978 10.49609375 10.08203125 C11.42654721 16.00014802 10.51044222 20.85716057 7.49609375 26.08203125 C3.20050641 30.50362249 -0.13315177 32.24988655 -6.25390625 32.39453125 C-11.53117829 32.33771851 -14.55315567 31.8352443 -18.50390625 28.08203125 C-22.15543869 23.24621802 -23.93824532 19.42217078 -23.84765625 13.2734375 C-23.00972473 7.93162408 -19.66313926 4.16038754 -15.81640625 0.58203125 C-10.45063489 -1.84775201 -5.56272945 -2.03937819 0 0 Z " fill="#F6FDFB" transform="translate(372.50390625,364.91796875)"/>
<path d="M0 0 C1.65 0 3.3 0 5 0 C5 4 5 4 3.55761719 5.60546875 C2.5622998 6.38857422 2.5622998 6.38857422 1.546875 7.1875 C-1.61367614 9.79391045 -4.52498655 12.47810252 -7.359375 15.4375 C-8.08253906 16.18644531 -8.80570312 16.93539062 -9.55078125 17.70703125 C-11.04004228 19.25977765 -12.52161676 20.81992667 -13.99609375 22.38671875 C-14.71410156 23.12535156 -15.43210937 23.86398438 -16.171875 24.625 C-16.8122168 25.29789063 -17.45255859 25.97078125 -18.11230469 26.6640625 C-20 28 -20 28 -22.10546875 27.83349609 C-24.82527205 26.63692284 -26.30465407 24.85134034 -28.25 22.625 C-28.95640625 21.83351562 -29.6628125 21.04203125 -30.390625 20.2265625 C-32 18 -32 18 -32 15 C-27.16743695 15.41421969 -25.17320782 17.46413986 -22 21 C-18.14256213 19.42845124 -15.89089153 16.95257484 -13 14 C-11.97567558 12.98394293 -10.94957821 11.96967067 -9.921875 10.95703125 C-8.86456077 9.90887692 -7.80726933 8.86069962 -6.75 7.8125 C-6.20859375 7.27947266 -5.6671875 6.74644531 -5.109375 6.19726562 C-2.19242899 3.37492463 -2.19242899 3.37492463 0 0 Z " fill="#DFFCF0" transform="translate(414,198)"/>
<path d="M0 0 C1.00611328 -0.020625 2.01222656 -0.04125 3.04882812 -0.0625 C4.49612305 -0.07023437 4.49612305 -0.07023437 5.97265625 -0.078125 C6.8531665 -0.0874707 7.73367676 -0.09681641 8.64086914 -0.10644531 C10.9375 0.25 10.9375 0.25 12.77514648 1.64160156 C13.15872314 2.17237305 13.5422998 2.70314453 13.9375 3.25 C13.5 5.3125 13.5 5.3125 12.9375 7.25 C13.5975 7.91 14.2575 8.57 14.9375 9.25 C11.6375 9.58 8.3375 9.91 4.9375 10.25 C4.9375 8.6 4.9375 6.95 4.9375 5.25 C2.2975 4.92 -0.3425 4.59 -3.0625 4.25 C-3.0625 5.57 -3.0625 6.89 -3.0625 8.25 C-8.37579355 10.33989546 -12.34978072 11.8612798 -18.0625 10.25 C-17.4025 8.27 -16.7425 6.29 -16.0625 4.25 C-15.4025 4.25 -14.7425 4.25 -14.0625 4.25 C-14.3925 3.26 -14.7225 2.27 -15.0625 1.25 C-10.09871057 -0.18861241 -5.13025019 0.02639357 0 0 Z " fill="#053162" transform="translate(219.0625,66.75)"/>
<path d="M0 0 C0.33 0 0.66 0 1 0 C1.79585256 10.687163 2.12825004 21.28399677 2 32 C-2.26616316 33.13764351 -5.56486311 34 -10 34 C-10.9802248 28.31160882 -11.11948801 22.82705667 -11.0625 17.0625 C-11.05573242 15.75055664 -11.05573242 15.75055664 -11.04882812 14.41210938 C-11.03714834 12.27470953 -11.01921689 10.13734537 -11 8 C-10.67 8 -10.34 8 -10 8 C-9.34 14.6 -8.68 21.2 -8 28 C-7.01 26.68 -6.02 25.36 -5 24 C-4.34 24.33 -3.68 24.66 -3 25 C-2.67 25.99 -2.34 26.98 -2 28 C-1.34 28.33 -0.68 28.66 0 29 C-0.03552979 28.40574219 -0.07105957 27.81148437 -0.10766602 27.19921875 C-0.26677219 24.46652377 -0.41470317 21.73332905 -0.5625 19 C-0.61857422 18.06542969 -0.67464844 17.13085938 -0.73242188 16.16796875 C-1.02366812 10.61487364 -0.87461303 5.49386553 0 0 Z " fill="#1F4066" transform="translate(332,168)"/>
<path d="M0 0 C0 2.64 0 5.28 0 8 C-2 5 -2 5 -2 2 C-2.69480469 2.30679688 -3.38960938 2.61359375 -4.10546875 2.9296875 C-7.18661473 4.06900464 -10.06892908 4.62598909 -13.3125 5.125 C-14.38113281 5.29257813 -15.44976562 5.46015625 -16.55078125 5.6328125 C-17.76314453 5.81457031 -17.76314453 5.81457031 -19 6 C-19 6.33 -19 6.66 -19 7 C-22.35584744 7.73958895 -25.54419263 8.15665345 -28.9765625 8.28125 C-29.894375 8.31863281 -30.8121875 8.35601562 -31.7578125 8.39453125 C-33.6770728 8.46513074 -35.59634376 8.53544092 -37.515625 8.60546875 C-38.88847656 8.66154297 -38.88847656 8.66154297 -40.2890625 8.71875 C-41.12131348 8.74904297 -41.95356445 8.77933594 -42.81103516 8.81054688 C-45.1776837 8.92964566 -45.1776837 8.92964566 -48 10 C-49.39439664 10.06665376 -50.79169875 10.08538199 -52.1875 10.0625 C-54.0746875 10.0315625 -54.0746875 10.0315625 -56 10 C-56 9.67 -56 9.34 -56 9 C-50.52322499 8.03906795 -45.04633238 7.07880981 -39.56933594 6.11914062 C-37.71123159 5.79347357 -35.85315792 5.4676314 -33.99511719 5.14160156 C-28.75646915 4.22244157 -23.51729425 3.3064223 -18.27709961 2.39611816 C-16.23973855 2.04170428 -14.20284501 1.68460525 -12.16601562 1.32714844 C-11.10576172 1.14442383 -10.04550781 0.96169922 -8.953125 0.7734375 C-7.63296387 0.54406494 -7.63296387 0.54406494 -6.28613281 0.31005859 C-4 0 -4 0 0 0 Z " fill="#20B971" transform="translate(360,213)"/>
<path d="M0 0 C6.85979592 1.95994169 12.49462784 5.4024164 17 11 C16.8125 13.8125 16.8125 13.8125 16 16 C15.01 15.67 14.02 15.34 13 15 C12.9175 15.94875 12.835 16.8975 12.75 17.875 C12.5025 18.90625 12.255 19.9375 12 21 C10.0625 22.125 10.0625 22.125 8 23 C6.73195434 25.0335948 6.73195434 25.0335948 6 27 C4.68 26.67 3.36 26.34 2 26 C3.11878383 24.82737096 4.24523051 23.66204862 5.375 22.5 C6.00148438 21.8503125 6.62796875 21.200625 7.2734375 20.53125 C9 19 9 19 11 19 C11 17.68 11 16.36 11 15 C9.35 15 7.7 15 6 15 C5.67 15.99 5.34 16.98 5 18 C4.67 16.68 4.34 15.36 4 14 C5.98 13.34 7.96 12.68 10 12 C9.67 9.69 9.34 7.38 9 5 C7.35 4.67 5.7 4.34 4 4 C4 3.34 4 2.68 4 2 C2.68 2 1.36 2 0 2 C0 1.34 0 0.68 0 0 Z " fill="#16B96A" transform="translate(408,183)"/>
<path d="M0 0 C1.15392455 2.3078491 1.53437166 4.47230331 2 7 C2.99 6.67 3.98 6.34 5 6 C4.67 6.99 4.34 7.98 4 9 C3.34 9.2475 2.68 9.495 2 9.75 C1.01 10.36875 1.01 10.36875 0 11 C-0.81870185 14.56206661 -0.81870185 14.56206661 -1 18 C-2.98 18 -4.96 18 -7 18 C-7.66 21.3 -8.32 24.6 -9 28 C-11.44905054 23.10189891 -10.88586811 21.94582144 -9.26953125 17.015625 C-6.75434543 11.0410913 -3.35654933 5.53312407 0 0 Z " fill="#123964" transform="translate(170,88)"/>
<path d="M0 0 C11.88 0 23.76 0 36 0 C36 0.99 36 1.98 36 3 C34 5 34 5 31.953125 5.08203125 C21.26461663 4.01626958 10.63387965 2.50878458 0 1 C0 0.67 0 0.34 0 0 Z " fill="#131313" transform="translate(268,0)"/>
<path d="M0 0 C0.33 0 0.66 0 1 0 C1.09765625 6.15234375 1.09765625 6.15234375 1 8 C0.67 8.33 0.34 8.66 0 9 C-0.03177237 12.33609884 0.06864009 15.66124506 0.16015625 18.99609375 C0 22 0 22 -2 24 C-2.6425235 26.06874034 -2.6425235 26.06874034 -3 28 C-3.66 28 -4.32 28 -5 28 C-5.33 29.65 -5.66 31.3 -6 33 C-13.4654395 35.77476512 -20.06714481 36.36801906 -28 36 C-23.8106852 33.49283973 -19.14582875 33.03008081 -14.40039062 32.3203125 C-11.36252753 31.78936523 -9.37941121 31.36594568 -7.12890625 29.1953125 C-2.63186785 20.45020668 -1.70009849 9.60977654 0 0 Z " fill="#2BBB77" transform="translate(380,288)"/>
<path d="M0 0 C0.33 0 0.66 0 1 0 C1.06058594 1.13179688 1.12117188 2.26359375 1.18359375 3.4296875 C1.26799917 4.91147145 1.35264717 6.3932416 1.4375 7.875 C1.47681641 8.62136719 1.51613281 9.36773437 1.55664062 10.13671875 C1.71573624 14.19986864 1.71573624 14.19986864 3 18 C1 19 1 19 -2 19 C-2 19.66 -2 20.32 -2 21 C-2 21.66 -2 22.32 -2 23 C-2.99 23 -3.98 23 -5 23 C-5 23.66 -5 24.32 -5 25 C-4.34 25.33 -3.68 25.66 -3 26 C-3.99 26.33 -4.98 26.66 -6 27 C-10 22.25 -10 22.25 -10 20 C-9.01 19.34 -8.02 18.68 -7 18 C-6.67 17.34 -6.34 16.68 -6 16 C-5.34 16 -4.68 16 -4 16 C-3.67 12.37 -3.34 8.74 -3 5 C-2.67 5 -2.34 5 -2 5 C-2 8.63 -2 12.26 -2 16 C-1.34 16 -0.68 16 0 16 C0 10.72 0 5.44 0 0 Z " fill="#254A74" transform="translate(109,328)"/>
<path d="M0 0 C0.7425 0.309375 1.485 0.61875 2.25 0.9375 C4.50692176 1.8094925 6.6450153 2.47667007 9 3 C8.505 3.5775 8.01 4.155 7.5 4.75 C5.63019987 7.10400629 5.63019987 7.10400629 6 11 C5.67 11.66 5.34 12.32 5 13 C0.25 11.125 0.25 11.125 -2 10 C-2 8.35 -2 6.7 -2 5 C-1.01 5 -0.02 5 1 5 C0.34 3.68 -0.32 2.36 -1 1 C-0.67 0.67 -0.34 0.34 0 0 Z " fill="#0E3968" transform="translate(106,346)"/>
<path d="M0 0 C0.83920486 0.0028299 1.67840973 0.00565979 2.54304504 0.00857544 C5.22285228 0.01976865 7.90232506 0.04487149 10.58203125 0.0703125 C12.39908371 0.08034342 14.21614142 0.08946907 16.03320312 0.09765625 C20.487108 0.11970516 24.94076292 0.15422899 29.39453125 0.1953125 C29.39453125 0.5253125 29.39453125 0.8553125 29.39453125 1.1953125 C27.99545532 1.2250415 27.99545532 1.2250415 26.56811523 1.25537109 C23.0808876 1.33384293 19.59406063 1.42054764 16.10717773 1.51269531 C14.60302502 1.55078739 13.09878733 1.58567342 11.59448242 1.6171875 C9.42205602 1.66327145 7.2502047 1.72118904 5.078125 1.78125 C3.77415771 1.8126709 2.47019043 1.8440918 1.12670898 1.87646484 C-2.70744208 2.20402429 -5.98271078 2.90571647 -9.60546875 4.1953125 C-11.10290763 6.18098984 -11.10290763 6.18098984 -11.60546875 8.1953125 C-13.25546875 7.8653125 -14.90546875 7.5353125 -16.60546875 7.1953125 C-10.993103 1.43126119 -7.9689191 -0.10084313 0 0 Z " fill="#1B3859" transform="translate(128.60546875,124.8046875)"/>
<path d="M0 0 C0.99 0.66 1.98 1.32 3 2 C2.690625 2.886875 2.38125 3.77375 2.0625 4.6875 C1.1709329 7.46709155 0.50622993 10.13136375 0 13 C-0.99 13.33 -1.98 13.66 -3 14 C-2.67 12.35 -2.34 10.7 -2 9 C-3.98 10.32 -5.96 11.64 -8 13 C-8.8125 11.375 -8.8125 11.375 -9 9 C-6.37377659 5.32328722 -3.77867727 2.51911818 0 0 Z " fill="#0C3364" transform="translate(180,78)"/>
<path d="M0 0 C0.66 0 1.32 0 2 0 C5.47503778 7.96512096 8.82945713 15.94427136 11.89453125 24.078125 C12.57937713 25.88824768 13.2817879 27.69195793 14.01171875 29.484375 C16.1068332 34.67950041 16.1068332 34.67950041 15 38 C11.58832771 30.22688584 8.3274245 22.41151493 5.25 14.5 C4.95665771 13.74734863 4.66331543 12.99469727 4.36108398 12.21923828 C2.79930401 8.17746175 1.33152568 4.12511878 0 0 Z " fill="#D0FBEA" transform="translate(212,248)"/>
<path d="M0 0 C0.99 0 1.98 0 3 0 C9.1856488 7.24173518 10.15157229 13.81246905 10.25 23.125 C10.25942627 23.80618896 10.26885254 24.48737793 10.27856445 25.18920898 C10.24562546 30.29599646 9.27741122 34.44517756 7 39 C6.34 39 5.68 39 5 39 C5.2165625 38.26136719 5.433125 37.52273438 5.65625 36.76171875 C9.00240196 24.56995214 9.20294171 16.21771431 3 5 C2.01058349 3.32702876 1.01351664 1.65848177 0 0 Z " fill="#DBFDF2" transform="translate(299,373)"/>
<path d="M0 0 C0.99 0.33 1.98 0.66 3 1 C3.433125 1.99 3.433125 1.99 3.875 3 C4.8553382 5.29150599 4.8553382 5.29150599 7.625 5.75 C8.40875 5.8325 9.1925 5.915 10 6 C10.14929757 8.68735631 10.25017853 10.51527911 9 12.9375 C7.66656257 15.6877147 7.8629965 17.98592292 8 21 C6.41806136 18.62709204 5.46910132 16.88037799 4.4921875 14.27734375 C4.22792969 13.57416016 3.96367187 12.87097656 3.69140625 12.14648438 C3.42199219 11.41751953 3.15257812 10.68855469 2.875 9.9375 C2.59785156 9.20466797 2.32070312 8.47183594 2.03515625 7.71679688 C0 2.25796644 0 2.25796644 0 0 Z " fill="#15BE6C" transform="translate(222,315)"/>
<path d="M0 0 C5.35152885 0.32433508 8.28280043 3.49704824 12 7 C11.01 8.32 10.02 9.64 9 11 C10.32 11.33 11.64 11.66 13 12 C11.2265625 12.703125 11.2265625 12.703125 9 13 C7.1484375 11.671875 7.1484375 11.671875 5.375 9.75 C4.78460938 9.12609375 4.19421875 8.5021875 3.5859375 7.859375 C0 3.65517241 0 3.65517241 0 0 Z " fill="#CEF8E5" transform="translate(382,213)"/>
<path d="M0 0 C1.02287109 -0.01836914 1.02287109 -0.01836914 2.06640625 -0.03710938 C6.77121584 -0.05055169 10.71405952 0.48968276 15.125 2.1875 C15.455 3.1775 15.785 4.1675 16.125 5.1875 C14.86816406 4.86007813 13.61132812 4.53265625 12.31640625 4.1953125 C6.86497719 2.98388382 1.62390111 2.96187618 -3.9375 3.0625 C-4.89849609 3.07152344 -5.85949219 3.08054688 -6.84960938 3.08984375 C-9.19167805 3.11314792 -11.53319792 3.14585942 -13.875 3.1875 C-13.545 2.5275 -13.215 1.8675 -12.875 1.1875 C-8.66327746 -0.06012347 -4.35766827 0.00407259 0 0 Z " fill="#CBF8E9" transform="translate(163.875,198.8125)"/>
<path d="M0 0 C9.57 0 19.14 0 29 0 C29 0.33 29 0.66 29 1 C20.09 1.99 11.18 2.98 2 4 C2 3.34 2 2.68 2 2 C1.34 1.34 0.68 0.68 0 0 Z " fill="#141414" transform="translate(203,0)"/>
<path d="M0 0 C0.33 0 0.66 0 1 0 C1 2.64 1 5.28 1 8 C0.34 8 -0.32 8 -1 8 C-1 12.95 -1 17.9 -1 23 C-0.34 23 0.32 23 1 23 C1.33 25.97 1.66 28.94 2 32 C-2.28939016 27.71060984 -3.20782501 21.44705981 -3.375 15.5625 C-3.23475903 10.04635508 -1.88040374 5.1599174 0 0 Z " fill="#28B773" transform="translate(336,366)"/>
<path d="M0 0 C1.07636719 0.00322266 2.15273437 0.00644531 3.26171875 0.00976562 C4.38964844 0.01814453 5.51757812 0.02652344 6.6796875 0.03515625 C7.81535156 0.03966797 8.95101562 0.04417969 10.12109375 0.04882812 C12.93234388 0.0606401 15.7434898 0.07711118 18.5546875 0.09765625 C18.8846875 1.08765625 19.2146875 2.07765625 19.5546875 3.09765625 C9.6546875 3.09765625 -0.2453125 3.09765625 -10.4453125 3.09765625 C-6.46036889 0.44102718 -4.73830947 -0.02493847 0 0 Z " fill="#0F3257" transform="translate(213.4453125,64.90234375)"/>
<path d="M0 0 C0 0.66 0 1.32 0 2 C-0.78246094 2.04898438 -1.56492187 2.09796875 -2.37109375 2.1484375 C-3.38300781 2.22320312 -4.39492188 2.29796875 -5.4375 2.375 C-6.44683594 2.44460937 -7.45617187 2.51421875 -8.49609375 2.5859375 C-9.32238281 2.72257813 -10.14867187 2.85921875 -11 3 C-11.33 3.66 -11.66 4.32 -12 5 C-18.6 5 -25.2 5 -32 5 C-32 4.67 -32 4.34 -32 4 C-28.16852166 3.3223726 -24.33456759 2.65990233 -20.5 2 C-18.88351562 1.71382812 -18.88351562 1.71382812 -17.234375 1.421875 C-11.39841946 0.42549235 -5.91994598 -0.22990081 0 0 Z " fill="#2CBD79" transform="translate(304,223)"/>
<path d="M0 0 C0.33 0 0.66 0 1 0 C1.37574214 6.01187421 1.29061544 11.75523068 -2 17 C-4.88713132 19.96558597 -6.39318258 20.93324341 -10.55078125 21.390625 C-11.79214844 21.34421875 -13.03351563 21.2978125 -14.3125 21.25 C-15.56675781 21.21390625 -16.82101562 21.1778125 -18.11328125 21.140625 C-19.06589844 21.09421875 -20.01851563 21.0478125 -21 21 C-21 20.67 -21 20.34 -21 20 C-20.34773438 19.97421875 -19.69546875 19.9484375 -19.0234375 19.921875 C-13.28727179 19.54961646 -9.47124297 18.92596944 -5 15 C-1.43016993 10.66520635 -0.89085095 5.39750872 0 0 Z " fill="#3ABF80" transform="translate(383,377)"/>
<path d="M0 0 C-3.24845492 1.85584375 -6.18089526 2.50811401 -9.8671875 3.0703125 C-11.00027344 3.24433594 -12.13335937 3.41835937 -13.30078125 3.59765625 C-14.48027344 3.77167969 -15.65976562 3.94570312 -16.875 4.125 C-18.04675781 4.30675781 -19.21851563 4.48851562 -20.42578125 4.67578125 C-25.6790835 5.46884504 -30.67657264 6.10231629 -36 6 C-36 5.34 -36 4.68 -36 4 C-32.37 4 -28.74 4 -25 4 C-25 3.34 -25 2.68 -25 2 C-21.95872183 1.66274935 -18.91705809 1.33007668 -15.875 1 C-15.0190625 0.90460938 -14.163125 0.80921875 -13.28125 0.7109375 C-8.82977526 0.23154791 -4.48558075 -0.11765458 0 0 Z " fill="#32BA79" transform="translate(324,235)"/>
<path d="M0 0 C5.61 0.66 11.22 1.32 17 2 C16.67 4.31 16.34 6.62 16 9 C15.67 9 15.34 9 15 9 C15 7.02 15 5.04 15 3 C8.565 3.495 8.565 3.495 2 4 C0.515 9.445 0.515 9.445 -1 15 C-2.38044817 9.4782073 -1.12624723 5.5649863 0 0 Z " fill="#41BB83" transform="translate(387,251)"/>
<path d="M0 0 C3.25442329 4.88163494 2.51553065 10.6056072 1.65234375 16.2890625 C0.68186198 20.51351258 -0.91761986 24.21385429 -3 28 C-3.66 27.01 -4.32 26.02 -5 25 C-4.34 25 -3.68 25 -3 25 C-2.67 23.02 -2.34 21.04 -2 19 C-1.34 19 -0.68 19 0 19 C-0.08378906 18.29875 -0.16757812 17.5975 -0.25390625 16.875 C-0.88446712 11.00040763 -0.98934629 5.8261504 0 0 Z " fill="#32C17D" transform="translate(306,386)"/>
<path d="M0 0 C3.51463197 5.27194795 2.49118234 11.86931673 2 18 C0.78588127 23.53244372 -0.6666655 27.69696855 -4.75 31.6875 C-5.4925 32.120625 -6.235 32.55375 -7 33 C-7 32.01 -7 31.02 -7 30 C-6.34 30 -5.68 30 -5 30 C-4.42183888 27.76994998 -3.93312973 25.5892255 -3.5625 23.3125 C-3.2840625 22.1678125 -3.2840625 22.1678125 -3 21 C-2.34 20.67 -1.68 20.34 -1 20 C0.35985837 16.00249918 0.11040154 11.92111887 0.0625 7.75 C0.05798828 7.00492187 0.05347656 6.25984375 0.04882812 5.4921875 C0.03709246 3.6614236 0.0191585 1.83070127 0 0 Z " fill="#40B980" transform="translate(397,370)"/>
<path d="M0 0 C-2.95503567 1.67023755 -5.31316601 2.30036166 -8.6875 2.5625 C-11.64181288 2.59506307 -11.64181288 2.59506307 -14 4 C-15.48638992 4.15655027 -16.97949127 4.25066943 -18.47265625 4.31640625 C-19.37177734 4.35830078 -20.27089844 4.40019531 -21.19726562 4.44335938 C-22.61555664 4.50233398 -22.61555664 4.50233398 -24.0625 4.5625 C-25.01189453 4.60568359 -25.96128906 4.64886719 -26.93945312 4.69335938 C-29.29281353 4.79979276 -31.64628354 4.90181008 -34 5 C-34 4.67 -34 4.34 -34 4 C-29.80253464 3.25915879 -25.60337989 2.52908434 -21.40234375 1.80883789 C-19.97409939 1.56242686 -18.54635412 1.31310431 -17.11914062 1.06079102 C-15.06505284 0.69817872 -13.00938525 0.34614855 -10.953125 -0.00390625 C-9.71723633 -0.21861572 -8.48134766 -0.4333252 -7.20800781 -0.65454102 C-4.36377289 -0.96082659 -2.65273658 -0.95278421 0 0 Z " fill="#32BB7A" transform="translate(300,333)"/>
<path d="M0 0 C0.33 0.66 0.66 1.32 1 2 C-0.43257963 4.72872311 -1.81722366 6.81722366 -4 9 C-5.71760742 11.9300362 -6.4433252 14.65995117 -7 18 C-7.66 18 -8.32 18 -9 18 C-9.33 18.66 -9.66 19.32 -10 20 C-9.19057075 13.36268014 -6.77946376 7.51171799 -3 2 C-2.01 1.34 -1.02 0.68 0 0 Z " fill="#30BD7B" transform="translate(252,372)"/>
<path d="M0 0 C0.66 0 1.32 0 2 0 C1.97679687 0.99 1.95359375 1.98 1.9296875 3 C1.81730741 9.93859261 1.8225962 16.33170085 4 23 C3.34 23 2.68 23 2 23 C-2.17094524 18.82905476 -1.11514852 10.82519503 -1.1328125 5.19921875 C-1 3 -1 3 0 0 Z " fill="#D6FAEC" transform="translate(332,372)"/>
<path d="M0 0 C1.22589844 0.47566406 1.22589844 0.47566406 2.4765625 0.9609375 C6.51234559 2.15109083 10.19509032 2.44359343 14.375 2.625 C15.11105469 2.66367187 15.84710938 2.70234375 16.60546875 2.7421875 C18.40327406 2.83557998 20.20160108 2.9188371 22 3 C21.67 3.66 21.34 4.32 21 5 C18.43721301 5.05420701 15.87558517 5.09377007 13.3125 5.125 C12.59126953 5.14175781 11.87003906 5.15851563 11.12695312 5.17578125 C6.95123219 5.21391569 3.7505862 4.8789919 0 3 C0 2.01 0 1.02 0 0 Z " fill="#BCF3DC" transform="translate(242,352)"/>
<path d="M0 0 C0.70125 0.144375 1.4025 0.28875 2.125 0.4375 C2.125 1.7575 2.125 3.0775 2.125 4.4375 C0.59375 5.921875 0.59375 5.921875 -1.375 7.1875 C-2.0246875 7.61546875 -2.674375 8.0434375 -3.34375 8.484375 C-4.10171875 8.95617187 -4.10171875 8.95617187 -4.875 9.4375 C-6.195 8.7775 -7.515 8.1175 -8.875 7.4375 C-3.7809081 0.57535558 -3.7809081 0.57535558 0 0 Z " fill="#D5FBEC" transform="translate(416.875,197.5625)"/>
<path d="M0 0 C4.455 0.99 4.455 0.99 9 2 C9.33 3.32 9.66 4.64 10 6 C9.01 6.33 8.02 6.66 7 7 C7 6.34 7 5.68 7 5 C6.34 5 5.68 5 5 5 C5 5.66 5 6.32 5 7 C4.34 7 3.68 7 3 7 C3 7.66 3 8.32 3 9 C2.01 9 1.02 9 0 9 C0 7.68 0 6.36 0 5 C0.66 4.67 1.32 4.34 2 4 C2 3.34 2 2.68 2 2 C1.34 2 0.68 2 0 2 C0 1.34 0 0.68 0 0 Z " fill="#042E5E" transform="translate(260,88)"/>
<path d="M0 0 C0 0.33 0 0.66 0 1 C-1.20398438 1.20496094 -2.40796875 1.40992188 -3.6484375 1.62109375 C-5.22398692 1.89306359 -6.79950621 2.16520807 -8.375 2.4375 C-9.1690625 2.57220703 -9.963125 2.70691406 -10.78125 2.84570312 C-15.01394983 3.51417589 -15.01394983 3.51417589 -19 5 C-21.2072923 5.07092842 -23.41667452 5.08415025 -25.625 5.0625 C-26.81351562 5.05347656 -28.00203125 5.04445313 -29.2265625 5.03515625 C-30.14179688 5.02355469 -31.05703125 5.01195312 -32 5 C-32 4.67 -32 4.34 -32 4 C-28.16852166 3.3223726 -24.33456759 2.65990233 -20.5 2 C-18.88351562 1.71382813 -18.88351562 1.71382813 -17.234375 1.421875 C-11.39841946 0.42549235 -5.91994598 -0.22990081 0 0 Z " fill="#CDF9E7" transform="translate(296,350)"/>
<path d="M0 0 C0.66 0 1.32 0 2 0 C2.07405295 4.80546679 2.12855497 9.6106029 2.16479492 14.41650391 C2.17989911 16.05197941 2.20038389 17.68741429 2.22631836 19.32275391 C2.26263145 21.67100024 2.27970932 24.01871205 2.29296875 26.3671875 C2.30845261 27.10057343 2.32393646 27.83395935 2.33988953 28.58956909 C2.34057617 30.65185547 2.34057617 30.65185547 2 34 C1.01 34.66 0.02 35.32 -1 36 C-0.83628906 34.9790625 -0.67257813 33.958125 -0.50390625 32.90625 C0.30165644 26.46174846 0.10532403 19.9828993 0.0625 13.5 C0.05573242 11.5509375 0.05573242 11.5509375 0.04882812 9.5625 C0.0371092 6.37495175 0.02070219 3.18750045 0 0 Z " fill="#163559" transform="translate(168,137)"/>
<path d="M0 0 C0.80050781 0.12761719 1.60101563 0.25523438 2.42578125 0.38671875 C3.23402344 0.50660156 4.04226562 0.62648437 4.875 0.75 C5.48988281 0.85699219 6.10476562 0.96398438 6.73828125 1.07421875 C6.40828125 2.06421875 6.07828125 3.05421875 5.73828125 4.07421875 C2.43828125 4.73421875 -0.86171875 5.39421875 -4.26171875 6.07421875 C-4.59171875 5.08421875 -4.92171875 4.09421875 -5.26171875 3.07421875 C-3.53640014 0.90221572 -2.83921072 0.09316926 0 0 Z " fill="#070707" transform="translate(199.26171875,-0.07421875)"/>
<path d="M0 0 C1.03115279 3.26913624 0.9638984 5.86041348 0.5625 9.25 C0.46066406 10.14203125 0.35882813 11.0340625 0.25390625 11.953125 C0.12822266 12.96632813 0.12822266 12.96632813 0 14 C0.66 14 1.32 14 2 14 C2 15.32 2 16.64 2 18 C2.99 17.67 3.98 17.34 5 17 C5 18.65 5 20.3 5 22 C1.01475551 18.32938007 -1.66418377 15.57251304 -2.18359375 10.046875 C-2.30440103 6.20946737 -2.1569594 3.2354391 0 0 Z " fill="#C7F9E3" transform="translate(351,372)"/>
<path d="M0 0 C0 0.99 0 1.98 0 3 C-0.83402344 2.71125 -1.66804688 2.4225 -2.52734375 2.125 C-11.62055626 -0.87482268 -18.60933758 -1.92628973 -28 0 C-21.31130686 -6.68869314 -7.835526 -2.97148616 0 0 Z " fill="#3BB97E" transform="translate(290,366)"/>
<path d="M0 0 C0.66 0 1.32 0 2 0 C2.33 1.65 2.66 3.3 3 5 C3.66 5 4.32 5 5 5 C5.268125 5.639375 5.53625 6.27875 5.8125 6.9375 C6.88667752 9.33131686 6.88667752 9.33131686 10 10 C11.1875 13.0625 11.1875 13.0625 12 16 C7.13175994 13.93468604 4.75868736 10.38144463 2 6 C0.625 2.5 0.625 2.5 0 0 Z " fill="#32B879" transform="translate(230,336)"/>
<path d="M0 0 C1.68299994 1.21093898 3.28042228 2.53902295 4.859375 3.8828125 C3.869375 4.2128125 2.879375 4.5428125 1.859375 4.8828125 C1.11300781 4.41230469 0.36664063 3.94179688 -0.40234375 3.45703125 C-3.81730098 1.49379621 -6.04685839 1.57694078 -9.953125 1.6953125 C-11.11457031 1.72238281 -12.27601563 1.74945313 -13.47265625 1.77734375 C-14.35308594 1.81214844 -15.23351562 1.84695313 -16.140625 1.8828125 C-15.140625 -0.1171875 -15.140625 -0.1171875 -13.34765625 -0.71875 C-8.76064846 -1.54684698 -4.25744246 -2.2219499 0 0 Z " fill="#BFF6DE" transform="translate(282.140625,380.1171875)"/>
<path d="M0 0 C0 0.66 0 1.32 0 2 C-5.68567876 4.90770954 -10.10569223 5.3864851 -16.4375 5.1875 C-17.67790039 5.16719727 -17.67790039 5.16719727 -18.94335938 5.14648438 C-20.9625264 5.11146992 -22.98135318 5.05767562 -25 5 C-25.33 4.01 -25.66 3.02 -26 2 C-25.21625 2.165 -24.4325 2.33 -23.625 2.5 C-14.6326821 3.74031971 -8.19509019 0 0 0 Z " fill="#CCF9E6" transform="translate(416,238)"/>
<path d="M0 0 C1.30710937 -0.00515625 2.61421875 -0.0103125 3.9609375 -0.015625 C7.34381218 0.22961538 9.60343084 0.78004743 12.625 2.25 C12.295 2.91 11.965 3.57 11.625 4.25 C8.655 3.92 5.685 3.59 2.625 3.25 C2.625 2.59 2.625 1.93 2.625 1.25 C-3.81 1.745 -3.81 1.745 -10.375 2.25 C-6.61188303 -0.25874465 -4.48737925 -0.01763214 0 0 Z " fill="#22BB75" transform="translate(365.375,347.75)"/>
<path d="M0 0 C1.953125 0.7109375 1.953125 0.7109375 4 2 C4.609375 4.1640625 4.609375 4.1640625 4.75 6.625 C4.80671875 7.44226563 4.8634375 8.25953125 4.921875 9.1015625 C4.96054687 10.04128906 4.96054687 10.04128906 5 11 C4.505 10.2575 4.01 9.515 3.5 8.75 C0.40124842 5.34137326 -2.82766134 3.81273937 -7 2 C-3.98968256 1.06576355 -3.13349732 0.95550089 0 2 C0 1.34 0 0.68 0 0 Z " fill="#29C179" transform="translate(377,363)"/>
<path d="M0 0 C0.33 0 0.66 0 1 0 C1 7.92 1 15.84 1 24 C0.01 24 -0.98 24 -2 24 C-1.34 16.08 -0.68 8.16 0 0 Z " fill="#252525" transform="translate(499,264)"/>
<path d="M0 0 C-2.32657339 1.55104893 -4.51231096 2.82336701 -7 4.0625 C-7.680625 4.40410156 -8.36125 4.74570312 -9.0625 5.09765625 C-11 6 -11 6 -14 7 C-14.33 7.99 -14.66 8.98 -15 10 C-15.33 9.01 -15.66 8.02 -16 7 C-15.01 6.67 -14.02 6.34 -13 6 C-13 5.01 -13 4.02 -13 3 C-8.44573816 0.33409063 -5.26053037 -0.31563182 0 0 Z " fill="#CFF9E9" transform="translate(358,348)"/>
<path d="M0 0 C0.33 0 0.66 0 1 0 C0.45493212 7.49468329 -1.23625491 14.77969373 -7 20 C-7.1875 17.6875 -7.1875 17.6875 -7 15 C-6.54625 14.5771875 -6.0925 14.154375 -5.625 13.71875 C-3.37706723 11.3411288 -2.78098071 8.91831744 -1.8125 5.8125 C-1.46832031 4.72582031 -1.12414062 3.63914062 -0.76953125 2.51953125 C-0.51558594 1.68808594 -0.26164062 0.85664063 0 0 Z " fill="#1DB26D" transform="translate(391,309)"/>
<path d="M0 0 C-3.05700613 3.05700613 -6.73435613 3.2900365 -10.875 4.1875 C-11.69097656 4.37763672 -12.50695312 4.56777344 -13.34765625 4.76367188 C-14.13785156 4.93833984 -14.92804688 5.11300781 -15.7421875 5.29296875 C-16.82282471 5.53309692 -16.82282471 5.53309692 -17.92529297 5.77807617 C-20.20524034 6.02195381 -21.82583712 5.68237244 -24 5 C-18.43930418 2.74566386 -12.9214349 2.40038172 -7 2 C-7 1.34 -7 0.68 -7 0 C-3.98968256 -0.93423645 -3.13349732 -1.04449911 0 0 Z " fill="#29B774" transform="translate(380,333)"/>
<path d="M0 0 C0.11085937 0.54527344 0.22171875 1.09054687 0.3359375 1.65234375 C1.41332154 5.46121322 3.29812542 8.89701224 5.0390625 12.44140625 C6 15 6 15 5 18 C2.70524509 15.14312933 1.10375755 12.37841801 -0.3125 9 C-0.67988281 8.154375 -1.04726562 7.30875 -1.42578125 6.4375 C-2 4 -2 4 -1.10546875 1.6875 C-0.74066406 1.130625 -0.37585938 0.57375 0 0 Z " fill="#22B872" transform="translate(212,284)"/>
<path d="M0 0 C0 0.66 0 1.32 0 2 C-6.65637843 3.23839599 -13.2471936 3.09139136 -20 3 C-20 2.67 -20 2.34 -20 2 C-13.25846717 0.74158054 -6.86515862 -0.26404456 0 0 Z " fill="#39BC7E" transform="translate(256,231)"/>
<path d="M0 0 C0.33 0 0.66 0 1 0 C1 1.98 1 3.96 1 6 C1.66 6 2.32 6 3 6 C2.67 7.32 2.34 8.64 2 10 C0.68 10 -0.64 10 -2 10 C-1.938125 11.423125 -1.938125 11.423125 -1.875 12.875 C-2 16 -2 16 -4 18 C-3.67 14.7 -3.34 11.4 -3 8 C-2.34 8 -1.68 8 -1 8 C-0.67 5.36 -0.34 2.72 0 0 Z " fill="#19B96E" transform="translate(387,258)"/>
<path d="M0 0 C3 1 3 1 4.125 2.9375 C4.41375 3.618125 4.7025 4.29875 5 5 C5.33 5.66 5.66 6.32 6 7 C6.13415472 9.6723621 6.04318541 12.32250488 6 15 C3.61874536 12.61874536 2.99813759 10.66142433 1.875 7.5 C1.52179688 6.5203125 1.16859375 5.540625 0.8046875 4.53125 C0 2 0 2 0 0 Z " fill="#23B772" transform="translate(222,315)"/>
<path d="M0 0 C0.66 0.99 1.32 1.98 2 3 C1.34 3 0.68 3 0 3 C-0.061875 3.763125 -0.12375 4.52625 -0.1875 5.3125 C-1 8 -1 8 -3.3125 9.875 C-6.18674892 11.07817396 -7.17347829 11.15154588 -10 10 C-9.0925 9.46375 -8.185 8.9275 -7.25 8.375 C-3.79561944 6.09936542 -2.08948315 3.53604841 0 0 Z " fill="#2BBC78" transform="translate(290,402)"/>
<path d="M0 0 C1.32 0 2.64 0 4 0 C4.33 2.64 4.66 5.28 5 8 C3.35 8 1.7 8 0 8 C-0.98120464 4.94736336 -0.98120464 3.05263664 0 0 Z " fill="#02BA5F" transform="translate(424,200)"/>
<path d="M0 0 C0.66 0.33 1.32 0.66 2 1 C2 5.38968456 -0.12805101 6.76905739 -3 10 C-3.66 8.68 -4.32 7.36 -5 6 C-3.35 4.02 -1.7 2.04 0 0 Z " fill="#1B3E68" transform="translate(176,81)"/>
<path d="M0 0 C0.66 0.33 1.32 0.66 2 1 C-1.08632611 4.2626876 -3.93483504 7.02235218 -8 9 C-8.66 8.67 -9.32 8.34 -10 8 C-6.91367389 4.7373124 -4.06516496 1.97764782 0 0 Z " fill="#2CB976" transform="translate(352,350)"/>
<path d="M0 0 C0.66 0 1.32 0 2 0 C2.69685498 1.6210103 3.38222861 3.24696066 4.0625 4.875 C4.63677734 6.23238281 4.63677734 6.23238281 5.22265625 7.6171875 C6 10 6 10 5 12 C3.5 10.6875 3.5 10.6875 2 9 C2 8.01 2 7.02 2 6 C1.34 6 0.68 6 0 6 C0 4.02 0 2.04 0 0 Z " fill="#36BE7E" transform="translate(202,227)"/>
<path d="M0 0 C0.66 0 1.32 0 2 0 C2 3.63 2 7.26 2 11 C1.01 11.33 0.02 11.66 -1 12 C-0.67 8.04 -0.34 4.08 0 0 Z " fill="#11B567" transform="translate(292,392)"/>
<path d="M0 0 C0.66 1.32 1.32 2.64 2 4 C1.34 4.66 0.68 5.32 0 6 C-0.40047444 8.32275177 -0.7397104 10.65739357 -1 13 C-1.66 12.67 -2.32 12.34 -3 12 C-2.88541307 10.56163249 -2.75790884 9.12429034 -2.625 7.6875 C-2.55539063 6.88699219 -2.48578125 6.08648437 -2.4140625 5.26171875 C-2 3 -2 3 0 0 Z " fill="#284569" transform="translate(111,132)"/>
<path d="M0 0 C1.24791579 2.94961915 0.98579669 4.03945364 -0.125 7.125 C-2.20222909 10.3100846 -3.39728091 11.02629214 -7 12 C-6.401875 11.319375 -5.80375 10.63875 -5.1875 9.9375 C-2.76412357 6.68325166 -1.4747599 3.76063775 0 0 Z " fill="#D4FCEC" transform="translate(397,392)"/>
<path d="M0 0 C3.26954202 0.56371414 4.82575883 1.49962266 7 4 C3.94736336 4.98120464 2.05263664 4.98120464 -1 4 C-0.67 2.68 -0.34 1.36 0 0 Z " fill="#14B869" transform="translate(290,368)"/>
<path d="M0 0 C0.33 0.99 0.66 1.98 1 3 C-0.1875 4.5 -0.1875 4.5 -2 6 C-4.6875 6.1875 -4.6875 6.1875 -7 6 C-6 3 -6 3 -2.9375 1.3125 C-1.968125 0.879375 -0.99875 0.44625 0 0 Z " fill="#F3FFFA" transform="translate(398,218)"/>
<path d="M0 0 C3.29078593 2.79716804 5.06305458 6.19528578 7 10 C6.67 10.66 6.34 11.32 6 12 C2.64229123 9.76152748 2.7854035 9.59041601 2 6 C1.34 5.34 0.68 4.68 0 4 C0 2.68 0 1.36 0 0 Z " fill="#2B4A6C" transform="translate(269,90)"/>
<path d="M0 0 C0.33 0 0.66 0 1 0 C1.56561146 5.65611463 -0.28608722 9.22642128 -3 14 C-3.66 13.01 -4.32 12.02 -5 11 C-4.34 11 -3.68 11 -3 11 C-2.67 9.02 -2.34 7.04 -2 5 C-1.34 5 -0.68 5 0 5 C0 3.35 0 1.7 0 0 Z " fill="#29B874" transform="translate(306,400)"/>
<path d="M0 0 C0.33 0.66 0.66 1.32 1 2 C-0.68474722 5.36949443 -1.8191658 6.87944386 -5 9 C-4.50769231 3.46153846 -4.50769231 3.46153846 -1.9375 1.125 C-1.298125 0.75375 -0.65875 0.3825 0 0 Z " fill="#25BB74" transform="translate(252,372)"/>
<path d="M0 0 C0 0.66 0 1.32 0 2 C-0.66 2 -1.32 2 -2 2 C-2.33 2.99 -2.66 3.98 -3 5 C-4.98 5.33 -6.96 5.66 -9 6 C-3.15384615 0 -3.15384615 0 0 0 Z " fill="#25BA74" transform="translate(262,366)"/>
<path d="M0 0 C1.48828125 1.08203125 1.48828125 1.08203125 3 3 C3.29296875 6.13671875 3.29296875 6.13671875 3.1875 9.6875 C3.16042969 10.86699219 3.13335937 12.04648437 3.10546875 13.26171875 C3.07066406 14.16535156 3.03585938 15.06898438 3 16 C2.67 16 2.34 16 2 16 C2 13.36 2 10.72 2 8 C1.34 8 0.68 8 0 8 C0 5.36 0 2.72 0 0 Z " fill="#365378" transform="translate(108,304)"/>
<path d="M0 0 C2.46301423 2.46301423 2.76766521 4.27360036 3.625 7.625 C3.88539063 8.62789063 4.14578125 9.63078125 4.4140625 10.6640625 C4.60742188 11.43492187 4.80078125 12.20578125 5 13 C4.34 13 3.68 13 3 13 C0.33409063 8.44573816 -0.31563182 5.26053037 0 0 Z " fill="#BFF5DE" transform="translate(204,272)"/>
<path d="M0 0 C0.33 1.32 0.66 2.64 1 4 C-0.6875 6.3125 -0.6875 6.3125 -3 8 C-4.32 7.67 -5.64 7.34 -7 7 C-4.69 4.69 -2.38 2.38 0 0 Z " fill="#34C17C" transform="translate(409,210)"/>
<path d="M0 0 C0.33 0.66 0.66 1.32 1 2 C1.66 2 2.32 2 3 2 C3 4.64 3 7.28 3 10 C3.66 10.33 4.32 10.66 5 11 C3.68 10.67 2.36 10.34 1 10 C0.67 6.7 0.34 3.4 0 0 Z " fill="#11325A" transform="translate(267,110)"/>
<path d="M0 0 C0.66 0 1.32 0 2 0 C1.63076923 7.38461538 1.63076923 7.38461538 -1.5625 10.5 C-2.7690625 11.2425 -2.7690625 11.2425 -4 12 C-4 11.01 -4 10.02 -4 9 C-3.34 9 -2.68 9 -2 9 C-1.22678118 6.01758453 -0.58803797 3.02419525 0 0 Z " fill="#2FBA79" transform="translate(394,391)"/>
<path d="M0 0 C0.33 0 0.66 0 1 0 C1.02708567 1.60407328 1.04643483 3.2082785 1.0625 4.8125 C1.07410156 5.70582031 1.08570313 6.59914063 1.09765625 7.51953125 C1 10 1 10 0 13 C-0.66 13 -1.32 13 -2 13 C-1.85769192 11.58297487 -1.71099254 10.1663904 -1.5625 8.75 C-1.48128906 7.96109375 -1.40007812 7.1721875 -1.31640625 6.359375 C-1.02365007 4.17635361 -0.57935581 2.1226818 0 0 Z " fill="#C6F7E3" transform="translate(394,300)"/>
<path d="M0 0 C0.66 0.99 1.32 1.98 2 3 C1.01 4.485 1.01 4.485 0 6 C-1.65 5.67 -3.3 5.34 -5 5 C-3.35 3.35 -1.7 1.7 0 0 Z " fill="#153965" transform="translate(117,127)"/>
<path d="M0 0 C2.15377564 2.62198774 3.40072174 4.64404172 4 8 C2.68 8 1.36 8 0 8 C-0.38063221 5.6739143 -0.71269945 3.33944736 -1 1 C-0.67 0.67 -0.34 0.34 0 0 Z " fill="#183B64" transform="translate(221,349)"/>
<path d="M0 0 C0.66 0 1.32 0 2 0 C2.66 1.32 3.32 2.64 4 4 C4.99 4 5.98 4 7 4 C7.33 5.98 7.66 7.96 8 10 C1.42857143 5 1.42857143 5 0 0 Z " fill="#21B470" transform="translate(374,225)"/>
<path d="M0 0 C1.79068573 2.6860286 2.66055791 4.6626589 3.625 7.6875 C3.88539063 8.49574219 4.14578125 9.30398438 4.4140625 10.13671875 C4.60742188 10.75160156 4.80078125 11.36648438 5 12 C2 11 2 11 0.8125 8.8125 C-0.07334979 5.74609689 -0.14770318 3.17561845 0 0 Z " fill="#BFF5DE" transform="translate(221,314)"/>
<path d="M0 0 C0.99 0 1.98 0 3 0 C4.42258812 3.82320557 5.24042276 6.91281305 5 11 C1.19015156 8.22920113 0.93159248 4.37131855 0 0 Z " fill="#24B773" transform="translate(217,303)"/>
<path d="M0 0 C1.07310858 3.27185553 0.89263102 5.42947592 0.0625 8.75 C-0.13214844 9.54921875 -0.32679688 10.3484375 -0.52734375 11.171875 C-0.68332031 11.77515625 -0.83929688 12.3784375 -1 13 C-1.33 13 -1.66 13 -2 13 C-2 9.37 -2 5.74 -2 2 C-1.34 2 -0.68 2 0 2 C0 1.34 0 0.68 0 0 Z " fill="#C3F6E1" transform="translate(381,280)"/>
<path d="M0 0 C0 2.64 0 5.28 0 8 C-2 5 -2 5 -2 2 C-3.98 2 -5.96 2 -8 2 C-4.91190305 0.23537317 -3.76687864 0 0 0 Z " fill="#39B97F" transform="translate(360,213)"/>
<path d="M0 0 C0.99 0 1.98 0 3 0 C3 0.66 3 1.32 3 2 C3.99 2.33 4.98 2.66 6 3 C6.33 3.66 6.66 4.32 7 5 C4.69 5 2.38 5 0 5 C-0.33 4.01 -0.66 3.02 -1 2 C-0.67 1.34 -0.34 0.68 0 0 Z " fill="#1E426C" transform="translate(160,169)"/>
<path d="M0 0 C-3.00617269 3.00617269 -5.82381598 2.59585316 -10 3 C-10 2.34 -10 1.68 -10 1 C-6.78548731 -0.60725635 -3.56387464 -0.05748185 0 0 Z " fill="#203F61" transform="translate(128,125)"/>
<path d="M0 0 C0.33 0.99 0.66 1.98 1 3 C-0.75 5.6875 -0.75 5.6875 -3 8 C-3.99 8 -4.98 8 -6 8 C-4.55746343 4.63408134 -2.66735273 2.48952921 0 0 Z " fill="#CDDEE7" transform="translate(187,88)"/>
<path d="M0 0 C3.3 0.33 6.6 0.66 10 1 C6.39338934 2.80330533 3.91606575 3.46599103 0 4 C0 2.68 0 1.36 0 0 Z " fill="#2C4D72" transform="translate(202,76)"/>
<path d="M0 0 C0.33 0 0.66 0 1 0 C1.05422947 1.4370809 1.09289723 2.87475462 1.125 4.3125 C1.14820313 5.11300781 1.17140625 5.91351563 1.1953125 6.73828125 C1 9 1 9 -1 12 C-1.66 12 -2.32 12 -3 12 C-2.01 8.04 -1.02 4.08 0 0 Z " fill="#BFF7DD" transform="translate(307,400)"/>
<path d="M0 0 C3.53586014 3.17320782 5.58578031 5.16743695 6 10 C5.34 10 4.68 10 4 10 C4 8.68 4 7.36 4 6 C3.01 5.67 2.02 5.34 1 5 C0.67 3.35 0.34 1.7 0 0 Z " fill="#35BA7B" transform="translate(299,374)"/>
<path d="M0 0 C0.66 0.99 1.32 1.98 2 3 C0.68 5.31 -0.64 7.62 -2 10 C-2.66 9.67 -3.32 9.34 -4 9 C-2.80100302 5.9168649 -1.52299523 2.93720508 0 0 Z " fill="#1FB672" transform="translate(352,366)"/>
<path d="M0 0 C0.99 0 1.98 0 3 0 C3.12375 0.61875 3.2475 1.2375 3.375 1.875 C3.87197356 4.19120832 3.87197356 4.19120832 6 6 C3.03 5.505 3.03 5.505 0 5 C0 3.35 0 1.7 0 0 Z " fill="#0E3259" transform="translate(104,351)"/>
<path d="M0 0 C0 3.57575896 -1.08840607 5.05295935 -3 8 C-4.32 7.67 -5.64 7.34 -7 7 C-4.69 4.69 -2.38 2.38 0 0 Z " fill="#3CC585" transform="translate(417,202)"/>
<path d="M0 0 C1 2 1 2 0.375 4 C-1.39265071 6.57112831 -3.07589059 7.07659703 -6 8 C-4.02 5.36 -2.04 2.72 0 0 Z " fill="#BAF4DC" transform="translate(302,414)"/>
<path d="M0 0 C0.33 0.66 0.66 1.32 1 2 C1.66 2 2.32 2 3 2 C3.66 3.98 4.32 5.96 5 8 C4.01 8.495 4.01 8.495 3 9 C0.70620251 5.55930376 0 4.27709699 0 0 Z " fill="#2EBA78" transform="translate(243,404)"/>
<path d="M0 0 C2.31 0.66 4.62 1.32 7 2 C6.67 3.32 6.34 4.64 6 6 C3.97945196 4.35830472 1.97956942 2.69088222 0 1 C0 0.67 0 0.34 0 0 Z " fill="#24BB74" transform="translate(341,402)"/>
<path d="M0 0 C3.465 1.485 3.465 1.485 7 3 C4 5 4 5 1.8125 4.625 C1.214375 4.41875 0.61625 4.2125 0 4 C0 2.68 0 1.36 0 0 Z " fill="#1EBA6F" transform="translate(355,394)"/>
<path d="M0 0 C0.66 0 1.32 0 2 0 C1.34 4.29 0.68 8.58 0 13 C-0.33 13 -0.66 13 -1 13 C-1.02696365 11.20841511 -1.04637917 9.41671527 -1.0625 7.625 C-1.07410156 6.62726563 -1.08570313 5.62953125 -1.09765625 4.6015625 C-1 2 -1 2 0 0 Z " fill="#19B66E" transform="translate(243,390)"/>
<path d="M0 0 C0.66 0 1.32 0 2 0 C1.25 2.4375 1.25 2.4375 0 5 C-2.125 5.8125 -2.125 5.8125 -4 6 C-3.34 4.68 -2.68 3.36 -2 2 C-1.34 2 -0.68 2 0 2 C0 1.34 0 0.68 0 0 Z " fill="#C7F6E3" transform="translate(264,382)"/>
<path d="M0 0 C0.99 0.33 1.98 0.66 3 1 C4.1875 4.0625 4.1875 4.0625 5 7 C3.0625 6.3125 3.0625 6.3125 1 5 C0.25 2.375 0.25 2.375 0 0 Z " fill="#29C079" transform="translate(237,345)"/>
<path d="M0 0 C1.08892712 2.83121051 0.96109941 4.16532751 0.25 7.1875 C-0.36875 8.5796875 -0.36875 8.5796875 -1 10 C-1.99 10.33 -2.98 10.66 -4 11 C-3.71125 10.29875 -3.4225 9.5975 -3.125 8.875 C-1.97866412 5.94547497 -0.97374346 2.99078347 0 0 Z " fill="#B5F1D6" transform="translate(390,317)"/>
<path d="M0 0 C1.32 0.33 2.64 0.66 4 1 C2.35 2.98 0.7 4.96 -1 7 C-1.625 5.1875 -1.625 5.1875 -2 3 C-1.34 2.01 -0.68 1.02 0 0 Z " fill="#D5E4EF" transform="translate(122,138)"/>
<path d="M0 0 C1 2 1 2 0.0625 5.125 C-0.288125 6.07375 -0.63875 7.0225 -1 8 C-1.99 8 -2.98 8 -4 8 C-2.87548273 5.0280615 -1.77706209 2.66559313 0 0 Z " fill="#324E73" transform="translate(170,88)"/>
<path d="M0 0 C-2.90092502 1.93395001 -3.89674737 2.30131941 -7.1875 2.625 C-8.445625 2.74875 -9.70375 2.8725 -11 3 C-7.47541893 -0.52458107 -4.86090765 -0.09001681 0 0 Z " fill="#E1FDF3" transform="translate(358,348)"/>
<path d="M0 0 C0.99 0.495 0.99 0.495 2 1 C2.75 3.375 2.75 3.375 3 6 C2.34 6.99 1.68 7.98 1 9 C-0.4783226 6.04335481 -0.06032783 3.25770263 0 0 Z " fill="#21BD73" transform="translate(219,268)"/>
<path d="M0 0 C0 3.51716303 -0.82445585 4.37121748 -3 7 C-4.32 6.67 -5.64 6.34 -7 6 C-4.69 4.02 -2.38 2.04 0 0 Z " fill="#C0F4DE" transform="translate(423,231)"/>
<path d="M0 0 C0.625 1.8125 0.625 1.8125 1 4 C0.01 5.485 0.01 5.485 -1 7 C-1.66 7 -2.32 7 -3 7 C-3.33 6.01 -3.66 5.02 -4 4 C-2.68 2.68 -1.36 1.36 0 0 Z " fill="#2AC37C" transform="translate(401,218)"/>
<path d="M0 0 C0.66 0.33 1.32 0.66 2 1 C1.67 1.99 1.34 2.98 1 4 C-2.5625 5.1875 -2.5625 5.1875 -6 6 C-4 4 -2 2 0 0 Z " fill="#35BC7B" transform="translate(384,186)"/>
<path d="M0 0 C0.66 0 1.32 0 2 0 C3.32 2.31 4.64 4.62 6 7 C3.11562221 5.70700306 1.12780579 4.34058637 -1 2 C-0.67 1.34 -0.34 0.68 0 0 Z " fill="#2A2A2A" transform="translate(401,48)"/>
</svg>
